PathFileType	4	(X/Y/Z)	..\data\2014029\dynamic\2014029_C4_05.trc
DataRate	CameraRate	NumFrames	NumMarkers	Units	OrigDataRate	OrigDataStartFrame	OrigNumFrames
100.000000	100.000000	4	52	mm	100.000000	0	194
Frame#	Time	L_IAS			L_IPS			R_IPS			R_IAS			L_FTC			L_FLE			L_FME			L_FAX			L_TTC			L_FAL			L_TAM			L_FCC			L_FM1			L_FM2			L_FM5			R_FTC			R_FLE			R_FME			R_FAX			R_TTC			R_FAL			R_TAM			R_FCC			R_FM1			R_FM2			R_FM5			CV7			TV10			SXS			SJN			L_SIA			L_SRS			L_SAA			L_SAE			L_HLE			L_HME			L_UOA			L_RSP			L_UHE			L_HM2			L_HM5			R_SIA			R_SRS			R_SAA			R_SAE			R_HLE			R_HME			R_UOA			R_RSP			R_UHE			R_HM2			R_HM5			
		X1	Y1	Z1	X2	Y2	Z2	X3	Y3	Z3	X4	Y4	Z4	X5	Y5	Z5	X6	Y6	Z6	X7	Y7	Z7	X8	Y8	Z8	X9	Y9	Z9	X10	Y10	Z10	X11	Y11	Z11	X12	Y12	Z12	X13	Y13	Z13	X14	Y14	Z14	X15	Y15	Z15	X16	Y16	Z16	X17	Y17	Z17	X18	Y18	Z18	X19	Y19	Z19	X20	Y20	Z20	X21	Y21	Z21	X22	Y22	Z22	X23	Y23	Z23	X24	Y24	Z24	X25	Y25	Z25	X26	Y26	Z26	X27	Y27	Z27	X28	Y28	Z28	X29	Y29	Z29	X30	Y30	Z30	X31	Y31	Z31	X32	Y32	Z32	X33	Y33	Z33	X34	Y34	Z34	X35	Y35	Z35	X36	Y36	Z36	X37	Y37	Z37	X38	Y38	Z38	X39	Y39	Z39	X40	Y40	Z40	X41	Y41	Z41	X42	Y42	Z42	X43	Y43	Z43	X44	Y44	Z44	X45	Y45	Z45	X46	Y46	Z46	X47	Y47	Z47	X48	Y48	Z48	X49	Y49	Z49	X50	Y50	Z50	X51	Y51	Z51	X52	Y52	Z52	

1	0	-169.5989227294922	1030.759399414063	-327.0945129394532	-378.2811279296876	1023.927612304688	-263.0908813476563	-380.7724914550782	1030.01513671875	-163.2411651611328	-181.3023834228516	1039.364013671875	-75.94274902343751	-235.8057403564454	936.2287597656252	-400.750213623047	-85.91136169433595	512.1401977539064	-382.6501159667969	-70.59728240966798	484.9971618652345	-258.2719421386719	-75.85884857177736	446.6224670410157	-391.8905639648439	-7.451512336730959	462.1217041015626	-331.5751037597657	55.21402740478517	93.63639068603517	-379.1043395996094	91.37849426269533	120.6399917602539	-284.3355102539063	41.16930389404298	18.13176155090332	-328.1460876464844	241.7312316894532	97.80169677734378	-305.6826477050782	225.9216766357422	102.3357009887696	-350.2471618652344	192.1452789306641	60.5260581970215	-401.4874267578126	-307.3883972167969	933.2868652343752	-19.60522079467774	-366.2862854003907	502.6186828613282	-51.22592544555665	-379.1010131835938	484.741424560547	-179.5394592285157	-405.3711547851564	442.0399475097657	-47.90330123901368	-338.9171752929688	421.399383544922	-109.374984741211	-522.7767944335939	88.89990234375001	-106.1118850708008	-496.4698486328126	95.69576263427736	-205.3103332519532	-582.2028198242189	39.58798980712891	-151.7539367675782	-367.5141906738282	14.38061332702637	-179.3003845214844	-366.9566040039063	30.42486190795899	-119.0055847167969	-406.7402954101564	11.43305206298828	-64.52056121826173	-274.5596923828126	1564.469848632813	-224.3517761230469	-376.8397827148438	1306.97216796875	-207.3699493408204	-123.0567321777344	1263.650634765625	-219.7963104248047	-149.5866851806641	1457.661865234375	-228.3954772949219	-408.2814025878907	1341.986450195313	-291.9452209472657	-352.2285461425782	1492.464721679688	-313.3479614257813	-317.9741516113282	1479.33251953125	-426.2688903808595	-263.7767639160157	1478.7431640625	-446.6640014648439	-384.0578002929689	1137.6142578125	-489.3262634277345	-386.4712219238282	1137.478881835938	-392.3406372070314	-412.4197082519532	1132.816284179688	-433.7626953125001	-347.2957458496094	847.699157714844	-475.3742065429689	-424.581024169922	877.720397949219	-510.5122985839845	-344.5175170898438	762.9247436523439	-470.5072326660157	-443.7984313964845	790.4080200195315	-517.1538696289064	-385.803192138672	1350.713745117188	-103.4805679321289	-333.6925354003907	1494.512084960938	-111.7139434814453	-274.9713439941407	1499.341064453125	-7.34242630004883	-220.9174499511719	1501.480224609375	-0.8222920894622805	-245.5598754882813	1155.4365234375	103.4765930175782	-273.3871154785157	1128.97216796875	16.77177238464356	-277.4456787109376	1126.932739257813	77.73104858398439	-54.80495834350587	938.433776855469	69.31761932373048	-126.7527389526367	918.2066040039065	121.5064468383789	3.552592754364015	867.6453247070315	72.1175994873047	-94.26660156250001	833.952575683594	128.2084655761719	
2	0.01	-158.2410583496094	1029.9169921875	-327.7356262207032	-367.1089172363282	1022.704711914063	-264.5178527832032	-369.9233703613282	1028.90966796875	-164.7142791748047	-170.8433074951172	1038.713623046875	-76.49880981445314	-224.1390228271485	935.2996215820315	-401.5065002441407	-75.04805755615236	511.2680969238282	-382.8303222656251	-60.13369369506837	484.2294006347657	-258.5247802734376	-65.15053558349611	445.5532531738282	-392.2187805175782	2.669656038284302	461.0916748046876	-331.3421936035157	64.36251831054689	92.16966247558595	-379.3697509765626	99.81746673583987	118.7156524658203	-284.1998291015626	49.58472061157228	16.66601943969727	-328.8302307128907	250.2695770263672	95.78694152832033	-304.2684020996094	234.9851379394532	100.3881301879883	-349.0287780761719	201.475814819336	58.71437454223634	-400.5592346191407	-297.6246948242188	932.7564697265627	-20.68152618408203	-358.7160034179688	502.7449645996095	-51.93530273437501	-370.9833068847657	484.8799133300782	-180.3142700195313	-398.2704162597657	442.6553955078126	-48.57483673095705	-332.0658264160157	421.0714416503907	-110.0674057006836	-521.3957519531251	91.3104934692383	-105.8075485229492	-495.2379760742189	97.54779052734378	-205.0844421386719	-581.8408813476564	43.04938125610352	-151.2312774658203	-367.4337158203126	14.51321697235108	-179.3152313232422	-366.8229675292969	30.5704460144043	-119.0300216674805	-406.6203918457032	11.83507537841797	-64.65235137939455	-264.2262878417969	1563.484130859375	-226.3700866699219	-366.2899475097657	1305.919677734375	-209.1552124023438	-112.4040679931641	1262.872802734375	-220.9980468750001	-139.0744018554688	1456.834838867188	-230.1190338134766	-397.5802612304689	1340.5068359375	-293.6747436523438	-341.7593688964844	1491.09619140625	-315.2387084960938	-307.5546875000001	1477.864379882813	-428.0264587402345	-253.1440429687501	1477.318359375	-448.6114501953126	-374.1409606933594	1136.523803710938	-490.9018859863282	-376.2834167480469	1136.27783203125	-393.8772583007814	-402.2777404785157	1131.795166015625	-435.2392578125001	-338.5731811523438	846.4433593750002	-477.3875427246095	-415.8152465820314	876.8854980468752	-512.2085571289064	-336.2062683105469	761.6554565429689	-472.5261230468751	-435.5277099609376	789.6348266601565	-518.7574462890626	-375.5375671386719	1349.775268554688	-105.4539337158203	-323.4967346191407	1493.714599609375	-113.726058959961	-264.9641113281251	1498.660400390625	-9.288864135742189	-210.8884429931641	1500.86083984375	-2.671358823776246	-235.7876739501954	1154.754028320313	101.6374130249024	-263.4311218261719	1128.292846679688	14.90005970001221	-267.6550598144532	1126.27783203125	75.84105682373048	-45.01981353759766	937.8248291015627	67.5916213989258	-117.0464096069336	917.5650634765627	119.6744461059571	13.36644744873047	867.175964355469	70.37319946289064	-84.4440155029297	833.2908325195315	126.4022979736328	
3	0.02	-146.7437133789063	1029.346313476563	-328.4949951171876	-355.7785034179688	1021.7509765625	-265.9427795410157	-358.8366088867188	1028.005126953125	-166.172348022461	-160.1046600341797	1038.1591796875	-77.17199707031251	-212.3492431640626	934.6729736328127	-402.3376464843751	-63.98708724975587	510.6386108398439	-382.9654235839844	-49.39816284179689	483.7658691406251	-258.7517395019532	-54.4323196411133	444.6785278320314	-392.4812011718751	12.84775066375733	460.0811462402345	-331.0923461914063	71.98742675781251	90.39977264404298	-379.4140930175782	106.9864959716797	116.2873229980469	-283.8887023925782	56.06677246093751	15.17841815948487	-329.2258605957032	257.3481750488282	92.34964752197267	-303.1786193847657	242.4427642822266	97.19192504882815	-348.0394897460938	208.7667999267579	55.94628143310548	-399.7814331054689	-287.5513916015626	932.318054199219	-21.87581062316895	-350.8091125488282	502.9681396484376	-52.73180770874025	-362.6125793457032	485.1106262207032	-181.1955871582032	-390.8174438476564	443.3868408203126	-49.31835174560548	-324.9487304687501	420.8277282714845	-110.8969192504883	-519.8440551757814	94.0228958129883	-105.352783203125	-493.9374389648439	99.67791748046878	-204.7487182617188	-581.4050903320314	46.84276962280274	-150.4698181152344	-367.2789916992188	14.65188026428223	-179.3410034179688	-366.5955810546876	30.75330352783204	-119.0465927124024	-406.3529357910157	12.32731914520264	-64.73229980468751	-253.8182373046876	1562.696411132813	-228.5257263183594	-355.5850219726563	1305.0322265625	-210.9663543701172	-101.5979537963867	1262.330322265625	-222.3182830810547	-128.5070343017578	1456.209106445313	-231.9084167480469	-386.7541809082032	1339.216796875	-295.5278625488282	-331.1917114257813	1489.913330078125	-317.2778625488282	-296.9955444335938	1476.574462890625	-429.9439086914064	-242.4103393554688	1476.006103515625	-450.5827636718751	-363.8425598144532	1135.527709960938	-492.6429748535157	-365.7844238281251	1135.179931640625	-395.5834045410157	-391.7933044433595	1130.855224609375	-436.9071655273439	-329.2678527832032	845.3258056640627	-479.5506286621095	-406.4799804687501	876.1245117187502	-514.0793457031251	-327.3021850585938	760.4906616210939	-474.6618957519532	-426.6221923828126	788.9326782226565	-520.5649414062501	-365.1562805175782	1349.010375976563	-107.5563201904297	-313.2245788574219	1493.107421875	-115.8839416503907	-254.9065246582032	1498.187255859375	-11.37622547149658	-200.814437866211	1500.46044921875	-4.642980575561524	-226.1626892089844	1154.277954101563	99.57366943359378	-253.5209960937501	1127.846801757813	12.77777099609375	-257.9750976562501	1125.848999023438	73.6906204223633	-35.53474426269532	937.2142333984377	65.77640533447267	-107.7132415771485	916.9846191406252	117.6799926757813	22.78583526611328	866.6401977539065	68.56104278564455	-75.12774658203126	832.6497802734377	124.4182434082032	
4	0.03	-135.0948791503907	1029.0673828125	-329.3753967285157	-344.2785949707032	1021.08935546875	-267.3659057617188	-347.4967041015626	1027.318115234375	-167.6119232177735	-149.0664520263672	1037.7119140625	-77.97274780273439	-200.4233703613282	934.3671875000002	-403.2495727539064	-52.8031463623047	510.2322387695314	-383.0732421875001	-38.52705001831055	483.5665893554689	-258.9569396972657	-43.73318099975587	443.9934692382814	-392.693817138672	23.02726936340332	459.1177062988282	-330.8087158203126	78.36020660400392	88.43307495117189	-379.2632446289063	113.096435546875	113.4971771240235	-283.4196472167969	60.89352035522462	13.78378963470459	-329.3823547363282	263.2155456542969	87.66790771484376	-302.3512573242188	248.5658721923829	92.91043090820314	-347.2340698242188	214.3253021240235	52.374813079834	-399.1422119140626	-277.1360168457032	931.9753417968752	-23.18223571777344	-342.5193786621094	503.294158935547	-53.63517379760744	-353.9639587402344	485.4398803710939	-182.2041473388672	-382.9884948730469	444.237762451172	-50.15405654907228	-317.5348205566407	420.6723937988282	-111.8779067993164	-518.0963134765626	97.05213928222659	-104.7764739990235	-492.528533935547	102.099235534668	-204.3294525146485	-580.8662109375001	50.99099349975587	-149.5035858154297	-367.0480346679688	14.76594066619873	-179.3820495605469	-366.2739257812501	30.9574317932129	-119.0600891113282	-405.9375000000001	12.89898109436036	-64.76222991943361	-243.3267669677735	1562.123046875	-230.815170288086	-344.7189636230469	1304.328491210938	-212.7947692871094	-90.62841033935548	1262.040283203125	-223.7615966796876	-117.8624038696289	1455.809936523438	-233.7826843261719	-375.8003234863282	1338.134399414063	-297.4956665039063	-320.5191040039063	1488.933715820313	-319.4606018066407	-286.2910461425782	1475.473999023438	-432.0208740234376	-231.584213256836	1474.823974609375	-452.5745849609376	-353.1587829589844	1134.631103515625	-494.5455627441407	-354.9710998535157	1134.1923828125	-397.4556579589845	-380.9637145996094	1130.002807617188	-438.7637634277345	-319.3756103515626	844.3491210937502	-481.8491210937501	-396.5669250488282	875.4388427734377	-516.1210937500001	-317.7888793945313	759.4392700195314	-476.9091796875001	-417.0662536621095	788.3035278320315	-522.5792846679689	-354.6495666503907	1348.432006835938	-109.7823257446289	-302.8643493652344	1492.706176757813	-118.1817779541016	-244.7820587158204	1497.934814453125	-13.59870529174805	-190.681396484375	1500.291625976563	-6.734491825103762	-216.6911621093751	1154.026611328125	97.29374694824222	-243.6600952148438	1127.647583007813	10.41458511352539	-248.4043426513672	1125.66162109375	71.28919982910158	-26.35089874267579	936.6153564453127	63.87528228759767	-98.74431610107425	916.4795532226565	115.534538269043	31.81168746948243	866.0447387695315	66.68794250488283	-66.31251525878908	832.0495605468752	122.2713928222657	
